# xmcd
#
# Track frame offsets:
#	150
#	14833
#	26155
#	37145
#	47458
#	62631
#	74451
#	86806
#	100856
#	110509
#	123024
#	134839
#	146764
#	161461
#	171229
#	182963
#	194441
#	205936
#	221776
#	235138
#	246958
#	259230
#
# Disc length: 3617 seconds
#
# Revision: 0
# Processed by: cddbd v1.5.2PL0 Copyright (c) Steve Scherf et al.
# Submitted via: dBpowerAMP V4.0
#
DISCID=590e1f16
DTITLE=Pedro Bento e Zé da Estrada - 40 Anos de Boêmia
DYEAR=1994
DGENRE=Sertanejo
TTITLE0=Alma Vazia
TTITLE1=Cama de Pedra
TTITLE2=Casa Vazia
TTITLE3=Nao Pergunte Nada
TTITLE4=Noite Fria
TTITLE5=Perdido de Amor
TTITLE6=Serenata de Amor
TTITLE7=Taca da Dor
TTITLE8=Coracao que Chora
TTITLE9=Dois Coracoes
TTITLE10=Mulher de Ninguem
TTITLE11=O Dia Mais Lindo da Vida
TTITLE12=Alianca
TTITLE13=Amanheci em teus bracos
TTITLE14=Coracao de Pedra
TTITLE15=Eu Penso em Ti
TTITLE16=Ansia do Amor
TTITLE17=Flor da Lama
TTITLE18=Amor de Você
TTITLE19=Contra o Vento
TTITLE20=Castigo
TTITLE21=Dama de Vermelho
EXTD=
EXTT0=
EXTT1=
EXTT2=
EXTT3=
EXTT4=
EXTT5=
EXTT6=
EXTT7=
EXTT8=
EXTT9=
EXTT10=
EXTT11=
EXTT12=
EXTT13=
EXTT14=
EXTT15=
EXTT16=
EXTT17=
EXTT18=
EXTT19=
EXTT20=
EXTT21=
PLAYORDER=
